<mxfile host="65bd71144e">
    <diagram id="53vZRzIDgZGgw-JT5D9q" name="Page-1">
        <mxGraphModel dx="690" dy="514" grid="1" gridSize="10" guides="1" tooltips="1" connect="1" arrows="1" fold="1" page="1" pageScale="1" pageWidth="850" pageHeight="1100" math="0" shadow="0">
            <root>
                <mxCell id="0"/>
                <mxCell id="1" parent="0"/>
                <mxCell id="2" value="Node" style="shape=umlLifeline;perimeter=lifelinePerimeter;container=1;collapsible=0;recursiveResize=0;rounded=0;shadow=0;strokeWidth=1;fontStyle=1;fontSize=13;" parent="1" vertex="1">
                    <mxGeometry x="245" y="78" width="100" height="322" as="geometry"/>
                </mxCell>
                <mxCell id="3" value="" style="points=[];perimeter=orthogonalPerimeter;rounded=0;shadow=0;strokeWidth=1;" parent="2" vertex="1">
                    <mxGeometry x="45" y="70" width="10" height="230" as="geometry"/>
                </mxCell>
                <mxCell id="9" value="1. Stores Data" style="verticalAlign=bottom;endArrow=block;shadow=0;strokeWidth=1;" parent="1" edge="1">
                    <mxGeometry x="-0.0625" relative="1" as="geometry">
                        <mxPoint x="150" y="180.00000000000273" as="sourcePoint"/>
                        <mxPoint x="290" y="180" as="targetPoint"/>
                        <mxPoint as="offset"/>
                    </mxGeometry>
                </mxCell>
                <mxCell id="12" value="Smart Contract" style="shape=umlLifeline;perimeter=lifelinePerimeter;container=1;collapsible=0;recursiveResize=0;rounded=0;shadow=0;strokeWidth=1;fontStyle=1;fontSize=13;" parent="1" vertex="1">
                    <mxGeometry x="520" y="80" width="100" height="320" as="geometry"/>
                </mxCell>
                <mxCell id="13" value="" style="points=[];perimeter=orthogonalPerimeter;rounded=0;shadow=0;strokeWidth=1;" parent="12" vertex="1">
                    <mxGeometry x="45" y="70" width="10" height="230" as="geometry"/>
                </mxCell>
                <mxCell id="29" value="5. Get Token" style="verticalAlign=bottom;endArrow=block;endSize=8;shadow=0;strokeWidth=1;endFill=1;" parent="1" edge="1">
                    <mxGeometry x="-0.1515" relative="1" as="geometry">
                        <mxPoint x="745" y="280" as="targetPoint"/>
                        <mxPoint x="580" y="280" as="sourcePoint"/>
                        <mxPoint as="offset"/>
                        <Array as="points"/>
                    </mxGeometry>
                </mxCell>
                <mxCell id="31" value="6. Authenticate" style="verticalAlign=bottom;endArrow=none;endSize=8;shadow=0;strokeWidth=1;endFill=0;startArrow=block;startFill=1;" parent="1" edge="1">
                    <mxGeometry x="-0.4722" relative="1" as="geometry">
                        <mxPoint x="745" y="310" as="targetPoint"/>
                        <mxPoint x="300" y="310" as="sourcePoint"/>
                        <mxPoint as="offset"/>
                        <Array as="points">
                            <mxPoint x="535" y="310"/>
                        </Array>
                    </mxGeometry>
                </mxCell>
                <mxCell id="50" value="" style="group" parent="1" vertex="1" connectable="0">
                    <mxGeometry x="90" y="78" width="130" height="760" as="geometry"/>
                </mxCell>
                <mxCell id="27" value="" style="points=[];perimeter=orthogonalPerimeter;rounded=0;shadow=0;strokeWidth=1;" parent="50" vertex="1">
                    <mxGeometry x="45" y="69" width="10" height="231" as="geometry"/>
                </mxCell>
                <mxCell id="78" value="Provider" style="shape=umlActor;verticalLabelPosition=bottom;verticalAlign=top;html=1;outlineConnect=0;" vertex="1" parent="50">
                    <mxGeometry x="35" y="-18" width="30" height="60" as="geometry"/>
                </mxCell>
                <mxCell id="62" value="" style="endArrow=block;html=1;endFill=1;exitX=-0.2;exitY=0.435;exitDx=0;exitDy=0;exitPerimeter=0;" parent="1" edge="1" source="13">
                    <mxGeometry width="50" height="50" relative="1" as="geometry">
                        <mxPoint x="560" y="250" as="sourcePoint"/>
                        <mxPoint x="300" y="250" as="targetPoint"/>
                        <Array as="points">
                            <mxPoint x="510" y="250"/>
                            <mxPoint x="355" y="250"/>
                        </Array>
                    </mxGeometry>
                </mxCell>
                <mxCell id="63" value="4. Saves token" style="edgeLabel;html=1;align=center;verticalAlign=middle;resizable=0;points=[];" parent="62" vertex="1" connectable="0">
                    <mxGeometry x="-0.1012" relative="1" as="geometry">
                        <mxPoint x="-13" y="-10" as="offset"/>
                    </mxGeometry>
                </mxCell>
                <mxCell id="85" value="" style="edgeStyle=none;html=1;startArrow=classic;startFill=1;endArrow=none;endFill=0;strokeColor=#FFFFFF;" edge="1" parent="1" source="76">
                    <mxGeometry relative="1" as="geometry">
                        <mxPoint x="380" y="465" as="targetPoint"/>
                    </mxGeometry>
                </mxCell>
                <mxCell id="81" value="Consumer" style="shape=umlActor;verticalLabelPosition=bottom;verticalAlign=top;html=1;outlineConnect=0;" vertex="1" parent="1">
                    <mxGeometry x="735" y="60" width="30" height="60" as="geometry"/>
                </mxCell>
                <mxCell id="15" value="" style="points=[];perimeter=orthogonalPerimeter;rounded=0;shadow=0;strokeWidth=1;" parent="1" vertex="1">
                    <mxGeometry x="745" y="150" width="10" height="230" as="geometry"/>
                </mxCell>
                <mxCell id="82" value="2. Create Data Set Contract" style="verticalAlign=bottom;endArrow=block;shadow=0;strokeWidth=1;" edge="1" parent="1">
                    <mxGeometry x="-0.0625" relative="1" as="geometry">
                        <mxPoint x="150" y="210" as="sourcePoint"/>
                        <mxPoint x="560" y="210" as="targetPoint"/>
                        <mxPoint as="offset"/>
                    </mxGeometry>
                </mxCell>
                <mxCell id="83" value="3. Buys Token" style="verticalAlign=bottom;endArrow=none;shadow=0;strokeWidth=1;startArrow=classic;startFill=1;endFill=0;fillColor=#f5f5f5;strokeColor=#FFFFFF;" edge="1" parent="1">
                    <mxGeometry x="-0.0625" relative="1" as="geometry">
                        <mxPoint x="580" y="230.00000000000273" as="sourcePoint"/>
                        <mxPoint x="747" y="229" as="targetPoint"/>
                        <mxPoint as="offset"/>
                    </mxGeometry>
                </mxCell>
                <mxCell id="86" value="7. get data" style="verticalAlign=bottom;endArrow=classic;endSize=8;shadow=0;strokeWidth=1;endFill=1;startArrow=none;startFill=0;exitX=1.1;exitY=0.243;exitDx=0;exitDy=0;exitPerimeter=0;" edge="1" parent="1">
                    <mxGeometry x="-0.4722" relative="1" as="geometry">
                        <mxPoint x="745" y="340" as="targetPoint"/>
                        <mxPoint x="301" y="340.80999999999995" as="sourcePoint"/>
                        <mxPoint as="offset"/>
                        <Array as="points">
                            <mxPoint x="535" y="340"/>
                        </Array>
                    </mxGeometry>
                </mxCell>
            </root>
        </mxGraphModel>
    </diagram>
</mxfile>